<svg xmlns="http://www.w3.org/2000/svg" clip-rule="evenodd" fill-rule="evenodd" stroke-linejoin="round" stroke-miterlimit="2" viewBox="0 0 510 510"><path d="m244.908 408.304-52.086 90.197c-1.376 2.383-4.021 3.738-6.759 3.464s-5.062-2.127-5.938-4.735l-17.855-53.135-54.956 11.085c-2.697.544-5.463-.542-7.068-2.777-1.606-2.234-1.754-5.202-.378-7.585l46.955-81.318c-27.234-27.507-44.053-65.344-44.053-107.107 0-50.444 24.551-95.167 62.36-122.865 3.117-2.283 7.5-1.607 9.784 1.51 2.283 3.116 1.606 7.5-1.511 9.784-34.334 25.152-56.633 65.763-56.633 111.571 0 76.344 61.897 138.241 138.241 138.241 76.323 0 138.219-61.897 138.219-138.241 0-45.984-22.47-86.731-57.024-111.86-3.125-2.273-3.817-6.654-1.544-9.779 2.272-3.124 6.653-3.816 9.778-1.544 38.051 27.673 62.79 72.546 62.79 123.183 0 41.764-16.82 79.601-44.052 107.108l46.954 81.317c1.376 2.383 1.228 5.351-.378 7.585-1.605 2.235-4.371 3.321-7.068 2.777l-54.956-11.085-17.855 53.135c-.876 2.608-3.2 4.461-5.938 4.735s-5.383-1.081-6.759-3.464l-52.086-90.196c-3.332.218-6.694.329-10.081.329-3.395 0-6.763-.111-10.103-.33zm-87.526-35.094-37.636 65.181 45.809-9.24c3.458-.698 6.895 1.287 8.019 4.632l14.881 44.284 41.301-71.519c-27.258-4.551-52.065-16.346-72.374-33.338zm195.237.002c-20.31 16.994-45.117 28.789-72.373 33.339l41.299 71.516 14.881-44.284c1.124-3.345 4.561-5.33 8.019-4.632l45.809 9.24zm-173.704-264.387-18.219-72.654c-.677-2.7.31-5.545 2.514-7.245s5.206-1.933 7.645-.593c0 0 49.175 27.005 49.175 27.005l29.027-44.182c1.295-1.97 3.494-3.156 5.852-3.156 2.357 0 4.556 1.187 5.85 3.158l29.077 44.291 49.305-27.114c2.442-1.343 5.449-1.11 7.654.595s3.189 4.555 2.505 7.257l-18.399 72.646v19.918c0 3.865-3.134 7-7 7h-137.986c-3.866 0-7-3.135-7-7zm139.537-7.864 13.322-52.597-40.864 22.472c-3.202 1.761-7.219.763-9.225-2.292l-26.78-40.792-26.725 40.679c-2.005 3.052-6.019 4.049-9.22 2.292l-40.782-22.397 13.198 52.635zm-52.473-18.929c0 6.111-4.961 11.072-11.071 11.072-6.111 0-11.072-4.961-11.072-11.072s4.961-11.072 11.072-11.072c6.11 0 11.071 4.961 11.071 11.072zm50.922 32.929h-123.986v6.79s123.986 0 123.986-.001zm-61.912 244.04c-56.488 0-102.586-46.097-102.586-102.608 0-56.488 46.098-102.586 102.586-102.586 56.511 0 102.608 46.099 102.608 102.586 0 56.511-46.097 102.608-102.608 102.608zm0-14c48.8 0 88.608-39.807 88.608-88.608 0-48.779-39.808-88.586-88.608-88.586-48.779 0-88.586 39.807-88.586 88.586 0 48.8 39.807 88.608 88.586 88.608zm6.512-148.058 12.011 30.461 32.678 2.005c2.87.176 5.341 2.09 6.229 4.825.888 2.736.012 5.736-2.207 7.564 0 0-25.271 20.818-25.271 20.818l8.212 31.688c.721 2.784-.334 5.726-2.659 7.417-2.326 1.692-5.45 1.789-7.876.245l-27.628-17.583-27.606 17.581c-2.426 1.545-5.55 1.449-7.877-.242-2.326-1.691-3.381-4.634-2.66-7.418l8.212-31.688-25.271-20.818c-2.219-1.828-3.095-4.828-2.207-7.564.888-2.735 3.359-4.649 6.229-4.825 0 0 32.675-2.005 32.675-2.005l11.991-30.458c1.053-2.675 3.636-4.435 6.511-4.436 2.876 0 5.459 1.758 6.514 4.433zm-6.507 21.664-7.115 18.075c-.997 2.531-3.37 4.256-6.085 4.423l-19.386 1.189 14.997 12.354c2.101 1.731 3.008 4.524 2.326 7.159l-4.872 18.798 16.37-10.425c2.293-1.46 5.225-1.461 7.518-.001l16.396 10.434-4.874-18.806c-.682-2.635.225-5.428 2.326-7.159l14.997-12.354-19.386-1.189c-2.714-.167-5.086-1.89-6.083-4.42z"></path></svg>