<svg xmlns="http://www.w3.org/2000/svg" id="Outline" viewBox="0 0 64 64"><path d="m29.92 42.61-3.54-3.54.71-.71c.57-.56.88-1.32.88-2.12s-.31-1.55-.88-2.12c-1.17-1.17-3.07-1.17-4.24 0l-.71.71-3.53-3.54c-.48-.47-1.3-.34-1.61.26l-5.58 11.17-4.13 4.13c-.39.39-.39 1.02 0 1.41 0 0 5.63 5.63 5.66 5.66.39.39 1.03.39 1.41 0l.87-.86 6.4 3.84c.39.24.89.17 1.22-.15l2.83-2.83c.44-.44.34-1.24-.19-1.56l-5.51-3.31s9.65-4.83 9.68-4.84c.6-.3.74-1.13.26-1.6zm-5.66-7.07c.39-.39 1.03-.39 1.42 0s.38 1.02 0 1.41l-.71.71-1.41-1.42zm-10.6 16.26-4.25-4.24 2.83-2.83 4.25 4.24zm9.7 1.61-1.37 1.37-5.31-3.18 1.37-1.37zm-5.26-5.66-4.64-4.63 4.71-9.43 9.36 9.35zm25.9-10.75c-6.62 0-12 4.04-12 9 0 2.22 1.05 4.31 2.98 5.95l-.95 3.81c-.09.38.04.78.34 1.02.31.25.72.29 1.07.11l4.73-2.37c1.24.31 2.53.47 3.82.47 6.62 0 12-4.04 12-9s-5.38-9-12-9zm0 16c-1.24 0-2.48-.17-3.66-.5-.24-.07-.49-.04-.72.07l-3.13 1.56.58-2.32c.1-.39-.05-.8-.37-1.04-1.75-1.31-2.71-3-2.71-4.77 0-3.86 4.49-7 10-7s10 3.14 10 7-4.49 7-10 7zm-28-25c3.86 0 7-3.14 7-7s-3.14-7-7-7c-3.2 0-5.98 2.16-6.78 5.25-.14.53-.68.86-1.22.72-.53-.14-.86-.68-.72-1.22 1.03-3.97 4.61-6.75 8.72-6.75 4.96 0 9 4.04 9 9s-4.04 9-9 9c-4.11 0-7.69-2.78-8.72-6.75-.14-.54.18-1.08.72-1.22s1.08.18 1.22.72c.8 3.09 3.59 5.25 6.78 5.25zm1-5c0-.55-.45-1-1-1-1.65 0-3-1.35-3-3 0-1.3.84-2.4 2-2.82v-.18c0-.55.45-1 1-1s1 .45 1 1v.18c1.16.41 2 1.51 2 2.82 0 .55-.45 1-1 1s-1-.45-1-1-.45-1-1-1-1 .45-1 1 .45 1 1 1c1.65 0 3 1.35 3 3 0 1.3-.84 2.4-2 2.82v.18c0 .55-.45 1-1 1s-1-.45-1-1v-.18c-1.16-.41-2-1.51-2-2.82 0-.55.45-1 1-1s1 .45 1 1 .45 1 1 1 1-.45 1-1zm28 23c0 .55-.45 1-1 1s-1-.45-1-1 .45-1 1-1 1 .45 1 1zm-4 0c0 .55-.45 1-1 1s-1-.45-1-1 .45-1 1-1 1 .45 1 1zm8 0c0 .55-.45 1-1 1s-1-.45-1-1 .45-1 1-1 1 .45 1 1zm-16.72-23.31c.39.41 1.05.4 1.44 0l5.66-5.89c2.15-2.24 2.15-5.88 0-8.11-1.68-1.74-4.27-2.17-6.38-1.12-2.11-1.05-4.71-.62-6.38 1.12-2.15 2.24-2.15 5.88 0 8.11 0 0 5.65 5.88 5.66 5.89zm-4.22-12.61c.69-.72 1.59-1.08 2.5-1.08.65 0 1.3.19 1.89.57.33.22.76.22 1.09 0 1.41-.92 3.22-.71 4.39.51 1.42 1.47 1.42 3.87 0 5.34l-4.94 5.14-4.94-5.14c-1.42-1.47-1.42-3.87 0-5.34zm26.94 13.92v-3h-14v12h14v-5c0-.55.45-1 1-1s1 .45 1 1v6c0 .55-.45 1-1 1h-16c-.55 0-1-.45-1-1v-14c0-.55.45-1 1-1h16c.55 0 1 .45 1 1v4c0 .55-.45 1-1 1s-1-.45-1-1zm-8.55-.89c-.66-.33-1.45.17-1.45.89v6c0 .7.78 1.23 1.45.89l6-3c.73-.36.73-1.43 0-1.79 0 0-5.97-2.98-6-3zm.55 5.27v-2.76l2.76 1.38zm-15.08.91c.39.39.39 1.02 0 1.41l-2.12 2.12c-.39.39-1.04.37-1.41 0-.39-.39-.39-1.02 0-1.41l2.12-2.12c.39-.39 1.02-.39 1.41 0zm1.64 7.37h-3c-.55 0-1-.45-1-1s.45-1 1-1h3c.55 0 1 .45 1 1s-.45 1-1 1zm-8-10c.55 0 1 .45 1 1v3c0 .55-.45 1-1 1s-1-.45-1-1v-3c0-.55.45-1 1-1z"></path></svg>